<?xml version="1.0" encoding="UTF-8"?>
<svg id="Calque_1" xmlns="http://www.w3.org/2000/svg" version="1.1" viewBox="0 0 1986.1 1000">
  <!-- Generator: Adobe Illustrator 29.3.1, SVG Export Plug-In . SVG Version: 2.1.0 Build 151)  -->
  <defs>
    <style>
      .st0 {
        fill: #003a69;
      }

      .st1 {
        isolation: isolate;
      }
    </style>
  </defs>
  <g>
    <g class="st1">
      <g class="st1">
        <path class="st0" d="M794,498.4c-5.6-3.7-9.3-8.5-11.1-14.6-1.8-6.1-2.8-13.6-2.8-22.7v-103.1c0-1.7.4-2.8,1.1-3.3.7-.5,2.5-.8,5.4-1,2.9-.1,8.9-.2,17.9-.2v108.4c0,7.3.9,12.6,2.8,15.7,1.8,3.1,5.4,4.7,10.8,4.7s9.4-.8,12.5-2.5v-121.8c0-1.7.4-2.8,1.1-3.3.7-.5,2.5-.8,5.3-1,2.8-.1,8.7-.2,17.6-.2v142.3c-3.1,2-7.9,3.8-14.4,5.5-6.5,1.7-13.8,2.5-22,2.5s-18.5-1.8-24-5.5Z"/>
      </g>
      <g class="st1">
        <path class="st0" d="M925.5,354.8c.8-.5,3.1-.8,6.9-1,3.8-.1,9-.2,15.5-.2v144c0,1.3-.4,2.3-1.1,3.1-.7.8-1.8,1.2-3.2,1.2h-18.2l-22.4-56.7c-3.7-9.5-7.9-25.1-12.7-47,1.8,18.1,2.8,34.3,2.8,48.7v50.8c0,1.6-.4,2.6-1.1,3.1-.7.5-3,.8-6.9,1-3.9.1-9.1.2-15.6.2v-144c0-2.8,1.4-4.2,4.2-4.2h18.6l22.2,55.7c3.5,8.9,7.7,23.9,12.5,44.9-1.8-17.1-2.8-32.7-2.8-47v-49.3c0-1.6.4-2.6,1.2-3.1Z"/>
        <path class="st0" d="M964.7,364c0-3.8.4-6.4,1.2-7.6.8-1.3,2.6-2,5.4-2.3,2.8-.3,8.6-.4,17.4-.4v144c0,1.6-.4,2.6-1.1,3.1-.7.5-3,.8-7,1-4,.1-9.2.2-15.9.2v-137.9Z"/>
        <path class="st0" d="M1025.5,490.6c-3.1-14-7.5-36.7-13.2-68.1-5.7-31.4-9.5-52.3-11.3-62.8-.3-1.7-.4-2.8-.4-3.2,0-1.1.4-1.9,1.3-2.3s2.3-.6,4.4-.6h19.7l10.8,69.5c2.1,13.7,4.7,33.5,7.8,59.5,2-22.3,4.3-42.1,7-59.5l9.3-63.1c.3-2.4.8-4.1,1.6-5,.8-.9,2.2-1.4,4.1-1.4h20.8l-28.2,148.2c-6.9.8-13.8,1.3-20.5,1.3s-11.3-4.2-13.1-12.5Z"/>
        <path class="st0" d="M1122.5,480.9h30.1c0,5.6,0,10.2-.2,13.6-.1,3.4-.5,5.5-1,6.2-.5.8-1.4,1.2-2.9,1.2h-49.5v-144c0-.7.3-1.6.8-2.6.6-1.1,1.7-1.6,3.4-1.6h50.8c0,5.4,0,9.7-.2,13.1-.1,3.4-.5,5.5-1.1,6.5-.6.9-1.6,1.4-3,1.4h-27.3v36.2h25.8c0,5.2,0,9.6-.2,13-.1,3.5-.5,5.8-1,6.9-.5,1.1-1.4,1.7-2.6,1.7h-22v48.5Z"/>
        <path class="st0" d="M1229.7,461c3.6,9.9,5.6,22,6,36.2,0,1.6-.2,2.7-.7,3.4-.5.7-1.6,1.2-3.3,1.5-1.7.3-4.4.4-8.3.4s-8.4-.2-13.8-.6c-.3-14.7-1.8-26.6-4.4-35.9-2.7-9.2-5.8-16.4-9.3-21.5-.8.1-2.1.2-3.8.2h-1.7v52.9c0,1.6-.4,2.6-1.2,3.1-.8.5-3.1.8-6.9,1-3.8.1-9,.2-15.5.2v-144c0-.7.3-1.6.8-2.6.6-1.1,1.7-1.6,3.4-1.6h19.9c9.5,0,17.2,1.3,23.1,3.8,5.9,2.5,10.4,7,13.6,13.3,3.1,6.4,4.7,15.2,4.7,26.5,0,18.8-4.9,32-14.8,39.8,4.5,6.1,8.6,14,12.2,23.9ZM1190.5,422.8h4.4c3.7,0,6.4-1.9,8.3-5.7,1.8-3.8,2.8-10.9,2.8-21.2s-.7-13.2-2.2-16.7c-1.5-3.5-3.9-5.3-7.3-5.3h-5.9v48.9Z"/>
        <path class="st0" d="M1252.6,499.8c-4.7-2.8-7.1-6.1-7.1-10.1s.5-5.3,1.4-8.4c.9-3,2.2-5.9,3.9-8.6,2.3,2.1,5.2,3.8,8.8,5.1s7.2,1.9,10.9,1.9c5.6,0,9.7-1.4,12.1-4.2,2.4-2.8,3.6-6.9,3.6-12.3s-.7-7.1-2-10.4c-1.3-3.2-3.8-7.3-7.5-12.3l-19.3-25.6c-4.7-6.1-7.8-11.5-9.5-16.3-1.7-4.8-2.5-9.7-2.5-14.8,0-9.9,3.2-17.8,9.7-23.6,6.5-5.9,15.8-8.8,28-8.8s17.7,1,22.1,3c4.4,2,6.7,4.9,6.7,8.9s-1.8,9-5.5,13.1c-1.3-1-3.7-1.9-7.4-2.9-3.7-.9-7.3-1.4-11-1.4-5.4,0-9.5.9-12.5,2.8-3,1.8-4.4,4.6-4.4,8.3s.6,6.2,1.7,8.9c1.1,2.7,3.2,6,6.1,10l20.3,26c4.9,6.4,8.3,12.1,10.1,17.3,1.8,5.2,2.6,10.9,2.6,17.3,0,12.3-2.9,22.2-8.7,29.9-5.8,7.6-15.7,11.4-29.9,11.4s-15.9-1.4-20.6-4.1Z"/>
        <path class="st0" d="M1325.6,364c0-3.8.4-6.4,1.2-7.6.8-1.3,2.6-2,5.4-2.3,2.8-.3,8.6-.4,17.4-.4v144c0,1.6-.4,2.6-1.1,3.1-.7.5-3,.8-7,1-4,.1-9.2.2-15.9.2v-137.9Z"/>
        <path class="st0" d="M1438.6,353.6v17.8c0,1.7-.3,2.8-1,3.4-.6.6-1.7.8-3.3.8h-22.7v122c0,1.6-.4,2.6-1.2,3.1-.8.5-3.1.8-6.9,1-3.8.1-9,.2-15.5.2v-126.2h-25.8v-17.8c0-2.8,1.4-4.2,4.2-4.2h72Z"/>
        <path class="st0" d="M1474.8,480.9h30.1c0,5.6,0,10.2-.2,13.6-.1,3.4-.5,5.5-1,6.2-.5.8-1.4,1.2-2.9,1.2h-49.5v-144c0-.7.3-1.6.8-2.6.6-1.1,1.7-1.6,3.4-1.6h50.8c0,5.4,0,9.7-.2,13.1-.1,3.4-.5,5.5-1.1,6.5-.6.9-1.6,1.4-3,1.4h-27.3v36.2h25.8c0,5.2,0,9.6-.2,13-.1,3.5-.5,5.8-1,6.9-.5,1.1-1.4,1.7-2.6,1.7h-22v48.5ZM1465,340.4c-1.3-1.9-2.4-3.9-3.1-5.9-.7-2-1.1-3.4-1.3-4.1,2.3-3.1,5.4-6.6,9.4-10.5,4-3.9,7.9-7.3,11.5-10.2,3.7-2.9,5.9-4.3,6.8-4.3,2.4,0,4.6,1.8,6.7,5.4,2,3.6,3.4,7.6,4.1,12-2.4,2.8-7.6,6.9-15.6,12.3-8,5.4-12.6,8.1-13.9,8.3-1.8,0-3.4-1-4.8-2.9Z"/>
        <path class="st0" d="M1576.9,480.9h30.1c0,5.6,0,10.2-.2,13.6-.1,3.4-.5,5.5-1,6.2-.5.8-1.4,1.2-2.9,1.2h-49.5v-144c0-.7.3-1.6.8-2.6.6-1.1,1.7-1.6,3.4-1.6h50.8c0,5.4,0,9.7-.2,13.1-.1,3.4-.5,5.5-1.1,6.5-.6.9-1.6,1.4-3,1.4h-27.3v36.2h25.8c0,5.2,0,9.6-.2,13-.1,3.5-.5,5.8-1,6.9-.5,1.1-1.4,1.7-2.6,1.7h-22v48.5ZM1567,340.4c-1.3-1.9-2.4-3.9-3.1-5.9-.7-2-1.1-3.4-1.3-4.1,2.3-3.1,5.4-6.6,9.4-10.5,4-3.9,7.9-7.3,11.5-10.2,3.7-2.9,5.9-4.3,6.8-4.3,2.4,0,4.6,1.8,6.7,5.4,2,3.6,3.4,7.6,4.1,12-2.4,2.8-7.6,6.9-15.6,12.3-8,5.4-12.6,8.1-13.9,8.3-1.8,0-3.4-1-4.8-2.9Z"/>
        <path class="st0" d="M1641.1,490.6c-3.1-14-7.5-36.7-13.2-68.1-5.7-31.4-9.5-52.3-11.3-62.8-.3-1.7-.4-2.8-.4-3.2,0-1.1.4-1.9,1.3-2.3s2.3-.6,4.4-.6h19.7l10.8,69.5c2.1,13.7,4.7,33.5,7.8,59.5,2-22.3,4.3-42.1,7-59.5l9.3-63.1c.3-2.4.8-4.1,1.6-5,.8-.9,2.2-1.4,4.1-1.4h20.8l-28.2,148.2c-6.9.8-13.8,1.3-20.5,1.3s-11.3-4.2-13.1-12.5Z"/>
      </g>
      <g class="st1">
        <path class="st0" d="M1777.3,461c3.6,9.9,5.6,22,6,36.2,0,1.6-.2,2.7-.7,3.4-.5.7-1.6,1.2-3.3,1.5-1.7.3-4.4.4-8.3.4s-8.4-.2-13.8-.6c-.3-14.7-1.8-26.6-4.4-35.9-2.7-9.2-5.8-16.4-9.3-21.5-.8.1-2.1.2-3.8.2h-1.7v52.9c0,1.6-.4,2.6-1.2,3.1-.8.5-3.1.8-6.9,1-3.8.1-9,.2-15.5.2v-144c0-.7.3-1.6.8-2.6.6-1.1,1.7-1.6,3.4-1.6h19.9c9.5,0,17.2,1.3,23.1,3.8,5.9,2.5,10.4,7,13.6,13.3,3.1,6.4,4.7,15.2,4.7,26.5,0,18.8-4.9,32-14.8,39.8,4.5,6.1,8.6,14,12.2,23.9ZM1738,422.8h4.4c3.7,0,6.4-1.9,8.3-5.7,1.8-3.8,2.8-10.9,2.8-21.2s-.7-13.2-2.2-16.7c-1.5-3.5-3.9-5.3-7.3-5.3h-5.9v48.9Z"/>
      </g>
      <g class="st1">
        <path class="st0" d="M1836.7,497.6c0,1.6-.3,2.6-1,3.1-.6.5-2.9.8-6.8,1-3.9.1-9.1.2-15.8.2v-61l-26.5-83.6c-.4-1.3-.2-2.1.5-2.5.8-.4,3.4-.7,7.9-.8,4.5-.1,10.7-.2,18.4-.2l6.1,27.7c1.1,4.9,2.3,11.7,3.6,20.3,1.3,8.6,2.1,15.5,2.5,20.5.4-4.9,1.3-11.8,2.6-20.4,1.3-8.7,2.6-15.6,3.7-20.6l5.1-23.3c.4-1.6,1.1-2.6,2-3.1.9-.5,3.3-.8,7.2-1,3.9-.1,9.2-.2,16-.2l-25.8,86.4v57.6Z"/>
      </g>
    </g>
    <g class="st1">
      <g class="st1">
        <path class="st0" d="M831.2,573.6c0,7.9-2.5,13.9-7.4,18.1-4.9,4.2-11.9,6.3-21,6.3h-6.7v26.1h-15.6v-73.3h23.4c8.9,0,15.7,1.9,20.3,5.7,4.6,3.8,6.9,9.5,6.9,17.1ZM796.1,585.3h5.1c4.8,0,8.4-.9,10.7-2.8,2.4-1.9,3.6-4.6,3.6-8.3s-1-6.3-3-8.1c-2-1.7-5.1-2.6-9.4-2.6h-7.1v21.8Z"/>
        <path class="st0" d="M891.9,624.1l-5.3-17.5h-26.7l-5.3,17.5h-16.8l25.9-73.6h19l26,73.6h-16.8ZM882.8,593.6c-4.9-15.8-7.7-24.8-8.3-26.8-.6-2.1-1.1-3.7-1.3-4.9-1.1,4.3-4.3,14.9-9.5,31.8h19.1Z"/>
        <path class="st0" d="M935.4,595.9v28.1h-15.6v-73.3h21.4c10,0,17.3,1.8,22.1,5.4,4.8,3.6,7.2,9.1,7.2,16.5s-1.2,8.2-3.6,11.5c-2.4,3.4-5.7,6-10.1,7.9,11,16.5,18.2,27.1,21.6,32h-17.3l-17.5-28.1h-8.3ZM935.4,583.3h5c4.9,0,8.5-.8,10.9-2.5,2.3-1.6,3.5-4.2,3.5-7.7s-1.2-6-3.6-7.4c-2.4-1.5-6.1-2.2-11.1-2.2h-4.7v19.8Z"/>
        <path class="st0" d="M989.6,624.1v-73.3h15.6v73.3h-15.6Z"/>
        <path class="st0" d="M1068.8,603.7c0,6.6-2.4,11.8-7.1,15.7-4.8,3.8-11.4,5.7-19.9,5.7s-14.7-1.5-20.8-4.4v-14.4c4.9,2.2,9.1,3.8,12.6,4.7,3.4.9,6.6,1.4,9.4,1.4s6-.7,7.9-2c1.8-1.3,2.7-3.2,2.7-5.8s-.4-2.7-1.2-3.8-2-2.2-3.5-3.2c-1.6-1-4.7-2.7-9.5-5-4.5-2.1-7.8-4.1-10.1-6.1-2.2-1.9-4-4.2-5.4-6.8-1.3-2.6-2-5.6-2-9,0-6.5,2.2-11.6,6.6-15.3,4.4-3.7,10.5-5.6,18.2-5.6s7.5.5,10.9,1.4c3.5.9,7.1,2.2,10.9,3.8l-5,12.1c-3.9-1.6-7.1-2.7-9.7-3.4-2.6-.6-5.1-1-7.5-1s-5.2.7-6.8,2.1c-1.6,1.4-2.4,3.2-2.4,5.4s.3,2.6,1,3.6c.6,1,1.6,2,3,3s4.7,2.7,9.9,5.1c6.9,3.3,11.6,6.6,14.1,9.9,2.5,3.3,3.8,7.3,3.8,12.1Z"/>
        <path class="st0" d="M1077.9,602.8v-12.5h26.9v12.5h-26.9Z"/>
        <path class="st0" d="M1162.4,603.7c0,6.6-2.4,11.8-7.1,15.7-4.8,3.8-11.4,5.7-19.9,5.7s-14.7-1.5-20.8-4.4v-14.4c4.9,2.2,9.1,3.8,12.6,4.7,3.4.9,6.6,1.4,9.4,1.4s6-.7,7.9-2c1.8-1.3,2.7-3.2,2.7-5.8s-.4-2.7-1.2-3.8-2-2.2-3.5-3.2c-1.6-1-4.7-2.7-9.5-5-4.5-2.1-7.8-4.1-10.1-6.1-2.2-1.9-4-4.2-5.4-6.8-1.3-2.6-2-5.6-2-9,0-6.5,2.2-11.6,6.6-15.3,4.4-3.7,10.5-5.6,18.2-5.6s7.5.5,10.9,1.4c3.5.9,7.1,2.2,10.9,3.8l-5,12.1c-3.9-1.6-7.1-2.7-9.7-3.4-2.6-.6-5.1-1-7.5-1s-5.2.7-6.8,2.1c-1.6,1.4-2.4,3.2-2.4,5.4s.3,2.6,1,3.6c.6,1,1.6,2,3,3s4.7,2.7,9.9,5.1c6.9,3.3,11.6,6.6,14.1,9.9,2.5,3.3,3.8,7.3,3.8,12.1Z"/>
        <path class="st0" d="M1222.5,624.1l-5.3-17.5h-26.7l-5.3,17.5h-16.8l25.9-73.6h19l26,73.6h-16.8ZM1213.5,593.6c-4.9-15.8-7.7-24.8-8.3-26.8-.6-2.1-1.1-3.7-1.3-4.9-1.1,4.3-4.3,14.9-9.5,31.8h19.1Z"/>
        <path class="st0" d="M1281.6,562.6c-5.9,0-10.4,2.2-13.6,6.6-3.2,4.4-4.8,10.5-4.8,18.4,0,16.4,6.1,24.5,18.4,24.5s11.4-1.3,18.7-3.9v13c-6,2.5-12.7,3.8-20.2,3.8-10.7,0-18.8-3.2-24.5-9.7-5.7-6.5-8.5-15.8-8.5-27.9s1.4-14.3,4.2-20c2.8-5.7,6.8-10.1,12-13.2,5.2-3.1,11.3-4.6,18.3-4.6s14.3,1.7,21.5,5.2l-5,12.6c-2.7-1.3-5.5-2.4-8.3-3.4-2.8-1-5.5-1.5-8.2-1.5Z"/>
        <path class="st0" d="M1317.9,624.1v-73.3h15.6v60.5h29.7v12.8h-45.3Z"/>
        <path class="st0" d="M1422.8,624.1l-5.3-17.5h-26.7l-5.3,17.5h-16.8l25.9-73.6h19l26,73.6h-16.8ZM1413.8,593.6c-4.9-15.8-7.7-24.8-8.3-26.8-.6-2.1-1.1-3.7-1.3-4.9-1.1,4.3-4.3,14.9-9.5,31.8h19.1Z"/>
        <path class="st0" d="M1473.6,580.9l15.3-30.2h16.8l-24.3,44.8v28.5h-15.5v-28l-24.3-45.3h16.9l15.2,30.2Z"/>
      </g>
    </g>
  </g>
  <g>
    <path class="st0" d="M296.7,735.8c-82.2-46-137.8-133.9-137.8-234.9s60.4-196.3,148.4-240.5c-14.8,28.8-44.5,106.4-13.5,185.9,20.2,51.9,57.8,83,79.8,98.1-47.1,60.7-81.3,123.1-77,191.4h0Z"/>
    <path class="st0" d="M395,562.1c4.1,3.7,9.3,8.4,15.1,14,2.8,2.7,7,6.9,12.2,12.6,4.4,4.8,9.1,10,14.6,17.3,3,4,6.7,9.4,10.7,16.1-35.5,10.1-70.9,20.1-106.4,30.2,5.8-12.9,11.2-23.8,15.6-32.2,3.7-6.9,7.8-14.7,14.2-24.8,5-8,9.3-14.1,12-17.9,4.3-5.9,8.4-11.1,12-15.5h0Z"/>
    <path class="st0" d="M475.7,711l-145.1,8.9c0-15.7,1.8-36,5.7-51.2l120.1-29.6c2.2,5.4,5,12.5,7.8,20.9,2,5.9,4.4,13.2,6.7,22.6,1.7,7.2,3.6,16.8,4.9,28.4h0Z"/>
    <path class="st0" d="M331.7,737.4l144.7-5.9c-.2,11.4-1.4,23-3.4,34.7-14.6,2.5-29.6,3.8-45,3.8-32.9,0-64.5-5.9-93.6-16.8-.4-1.7-.7-3.3-1-5-.7-3.7-1.2-7.2-1.6-10.8Z"/>
    <path class="st0" d="M428,231.8c-41.8,0-81.5,9.5-116.8,26.6-9.5,25.4-32.4,93.9-7.2,162.9,17.2,47.4,51.9,80.7,85.1,103.8.9-1.2,1.9-2.3,2.9-3.5,58.9-71.1,141.5-142.8,190-241.4-43.6-30.5-96.7-48.4-153.9-48.4h0ZM376.9,459.1c-11.9,0-21.5-9.6-21.5-21.5s9.6-21.5,21.5-21.5,21.5,9.6,21.5,21.5-9.6,21.5-21.5,21.5ZM439.4,402.4c-21.4,0-38.8-17.4-38.8-38.8s17.4-38.8,38.8-38.8,38.8,17.4,38.8,38.8-17.4,38.8-38.8,38.8Z"/>
    <path class="st0" d="M697.1,500.9c0,118.1-76,218.4-181.9,254.6,3.2-20.7,5.1-52.4-5.4-88.3-11.7-40.1-32.9-66-46.4-82.1-18.2-21.8-36.8-36.8-50.3-46.3.6-.7,1.1-1.5,1.7-2.2,55.5-69.9,142.9-146.2,187.4-240.7,58,49.3,94.8,122.9,94.8,205h0Z"/>
  </g>
</svg>